<svg xmlns="http://www.w3.org/2000/svg" width="251" height="40" viewBox="0 0 251 40" fill="none">
<g id="Layer 1">
<g id="Group">
<g id="Group_2">
<path id="Vector" d="M171.382 32.7681H169.091C168.865 32.7681 168.674 32.5842 168.674 32.3556C168.674 32.127 168.865 31.9331 169.091 31.9331H174.578C174.804 31.9331 174.995 32.127 174.995 32.3556C174.995 32.5842 174.804 32.7681 174.578 32.7681H172.287V39.5429C172.287 39.7939 172.083 40.0002 171.834 40.0002C171.586 40.0002 171.382 39.7939 171.382 39.5429V32.7681Z" fill="#0094D9"/>
<path id="Vector_2" d="M179.433 32.3333C179.433 32.0823 179.636 31.876 179.872 31.876C180.121 31.876 180.325 32.0823 180.325 32.3333V35.492H184.884V32.3333C184.884 32.0823 185.088 31.876 185.337 31.876C185.585 31.876 185.776 32.0823 185.776 32.3333V39.543C185.776 39.794 185.573 40.0002 185.337 40.0002C185.1 40.0002 184.884 39.794 184.884 39.543V36.3395H180.325V39.543C180.325 39.794 180.121 40.0002 179.872 40.0002C179.624 40.0002 179.433 39.794 179.433 39.543V32.3333Z" fill="#0094D9"/>
<path id="Vector_3" d="M190.836 39.4831V32.3877C190.836 32.1367 191.04 31.9304 191.276 31.9304H196.186C196.412 31.9304 196.593 32.1143 196.593 32.343C196.593 32.5716 196.412 32.7555 196.186 32.7555H191.728V35.4893H195.679C195.905 35.4893 196.086 35.6831 196.086 35.9018C196.086 36.1305 195.905 36.3144 195.679 36.3144H191.728V39.1177H196.243C196.469 39.1177 196.65 39.3017 196.65 39.5303C196.65 39.7589 196.469 39.9428 196.243 39.9428H191.276C191.04 39.9428 190.836 39.7366 190.836 39.4856V39.4831Z" fill="#0094D9"/>
<path id="Vector_4" d="M201.222 32.3904C201.222 32.1394 201.426 31.9331 201.662 31.9331H204.619C205.588 31.9331 206.368 32.2313 206.865 32.7334C207.248 33.1211 207.474 33.6827 207.474 34.3115V34.3338C207.474 35.6485 206.594 36.4165 205.364 36.6576L207.327 39.2198C207.417 39.3217 207.474 39.4261 207.474 39.5504C207.474 39.7914 207.248 39.9977 207.022 39.9977C206.84 39.9977 206.706 39.8958 206.604 39.7567L204.38 36.8265H202.112V39.538C202.112 39.789 201.908 39.9952 201.66 39.9952C201.411 39.9952 201.22 39.789 201.22 39.538V32.3854L201.222 32.3904ZM204.539 36.0188C205.725 36.0188 206.572 35.4 206.572 34.3711V34.3488C206.572 33.3646 205.827 32.7706 204.552 32.7706H202.114V36.0213H204.542L204.539 36.0188Z" fill="#0094D9"/>
<path id="Vector_5" d="M211.721 39.3465L214.926 32.2412C215.038 31.9902 215.207 31.8411 215.49 31.8411H215.535C215.806 31.8411 215.987 31.9902 216.089 32.2412L219.294 39.3366C219.329 39.4161 219.352 39.4956 219.352 39.5652C219.352 39.8063 219.16 40.0001 218.922 40.0001C218.708 40.0001 218.561 39.851 218.482 39.6671L217.657 37.8255H213.323L212.499 39.692C212.419 39.8858 212.272 40.0001 212.069 40.0001C211.843 40.0001 211.661 39.8162 211.661 39.5876C211.661 39.518 211.674 39.4385 211.718 39.3465H211.721ZM217.309 37.0004L215.493 32.9047L213.676 37.0004H217.312H217.309Z" fill="#0094D9"/>
<path id="Vector_6" d="M223.879 32.3904C223.879 32.1394 224.083 31.9331 224.319 31.9331H226.836C228.62 31.9331 229.793 32.8949 229.793 34.473V34.4954C229.793 36.2226 228.371 37.1148 226.689 37.1148H224.771V39.5404C224.771 39.7914 224.567 39.9977 224.319 39.9977C224.07 39.9977 223.879 39.7914 223.879 39.5404V32.3879V32.3904ZM226.724 36.2922C228.034 36.2922 228.891 35.5814 228.891 34.5302V34.5078C228.891 33.3646 228.046 32.7681 226.769 32.7681H224.771V36.2922H226.724Z" fill="#0094D9"/>
<path id="Vector_7" d="M236.591 36.7941L233.657 32.6288C233.599 32.5368 233.555 32.435 233.555 32.3206C233.555 32.0796 233.768 31.8733 234.017 31.8733C234.208 31.8733 234.332 31.9876 234.447 32.1492L237.053 35.959L239.682 32.1492C239.797 31.9901 239.908 31.8733 240.1 31.8733C240.348 31.8733 240.539 32.0796 240.539 32.3206C240.539 32.435 240.472 32.5617 240.415 32.6512L237.491 36.7717V39.5403C237.491 39.7913 237.287 39.9976 237.038 39.9976C236.79 39.9976 236.586 39.7913 236.586 39.5403V36.7941H236.591Z" fill="#0094D9"/>
</g>
<g id="Group_3">
<path id="Vector_8" fill-rule="evenodd" clip-rule="evenodd" d="M51.2637 24.7755L50.3418 22.8668C49.4995 21.1396 47.7477 20.0436 45.8269 20.0436H35.8306C32.158 20.0436 29.0371 16.015 29.0371 12.4189C29.0371 8.01749 32.0462 4.63507 36.4468 4.63507C40.8474 4.63507 43.8565 8.01749 43.8565 12.4189C43.8565 14.1063 43.3272 15.6696 42.4327 16.9569H47.9067C48.4633 15.5527 48.7739 14.0218 48.7739 12.4189C48.7714 5.61177 43.2527 0.092041 36.4443 0.092041C29.6359 0.092041 24.1172 5.61177 24.1172 12.4213C24.1172 15.9529 25.6056 19.1365 27.9835 21.3831C31.5666 24.5518 35.0031 24.778 36.4195 24.778H51.2637V24.7755Z" fill="#0094D9"/>
<path id="Vector_9" d="M56.9662 15.068C56.9662 15.7837 57.1054 16.4597 57.3812 17.0959C57.657 17.7322 58.0372 18.2839 58.5217 18.7561C59.0038 19.2283 59.5629 19.6035 60.199 19.8794C60.8326 20.1553 61.5085 20.2944 62.2266 20.2944C62.9447 20.2944 63.6205 20.1553 64.2616 19.8794C64.9027 19.6011 65.4618 19.2283 65.9389 18.7561C66.416 18.2839 66.7961 17.7297 67.0794 17.0959C67.3627 16.4622 67.5043 15.7862 67.5043 15.068V3.47928C67.5043 1.23013 69.4996 0.984093 69.4996 0.984093H71.7856V15.068C71.7856 15.9477 71.6713 16.7878 71.4427 17.593C71.2141 18.3957 70.8936 19.1512 70.4836 19.857C70.0711 20.5628 69.5741 21.204 68.9927 21.7781C68.4113 22.3547 67.7652 22.8468 67.057 23.2593C66.3464 23.6719 65.5835 23.9925 64.7685 24.2186C63.956 24.4473 63.1087 24.5616 62.2291 24.5616C60.9146 24.5616 59.6821 24.3131 58.5267 23.8135C57.3713 23.314 56.3624 22.6355 55.4977 21.7781C54.6355 20.9207 53.9522 19.9167 53.4478 18.766C52.9434 17.6153 52.6924 16.3827 52.6924 15.0705V0.984093H54.9784C54.9784 0.984093 56.9737 0.912021 56.9737 3.4594V15.068H56.9662Z" fill="#0094D9"/>
<path id="Vector_10" d="M4.70125 23.8211C4.29126 24.0697 3.78187 24.1939 3.17806 24.1939H0L12.1283 0.452393H12.583L24.7114 24.1939H21.5333C20.3431 24.1939 19.5007 23.6745 19.0038 22.6382L17.9328 20.4661H6.74376L5.70511 22.6382C5.44669 23.1799 5.11124 23.5751 4.69876 23.8211H4.70125ZM8.95026 16.5071H15.7288L12.3569 9.33963L8.95275 16.5071H8.95026Z" fill="#0094D9"/>
<path id="Vector_11" d="M77.7921 23.7068C77.3821 23.9554 76.8727 24.0796 76.2689 24.0796H73.0908L85.2191 0.340576H85.6739L97.8022 24.0821H94.6241C93.4339 24.0821 92.5916 23.5627 92.0946 22.5263L91.0237 20.3542H79.8371L78.7984 22.5263C78.54 23.0681 78.2046 23.4633 77.7921 23.7093V23.7068ZM82.0411 16.3928H88.8196L85.4478 9.22532L82.0436 16.3928H82.0411Z" fill="#0094D9"/>
<path id="Vector_12" d="M138.145 20.1701H127.731V2.96479C127.731 1.49849 126.544 0.310547 125.077 0.310547H123.269V24.2608H134.087C135.263 24.2608 136.341 23.6097 136.888 22.5684L138.145 20.1701Z" fill="#0094D9"/>
<path id="Vector_13" d="M115.026 11.7851C117.148 10.5823 118.182 8.86496 118.182 6.54622V6.47912C118.182 4.8662 117.648 3.55151 116.549 2.45303C115.15 1.05383 112.976 0.313232 110.26 0.313232H103.129C101.695 0.313232 100.532 1.47633 100.532 2.91031V24.266H110.596C116.169 24.266 119.496 21.7857 119.496 17.6279V17.5608C119.496 14.76 118.072 12.9184 115.024 11.7901L115.026 11.7851ZM113.719 7.21972C113.719 9.1607 112.151 10.2741 109.415 10.2741H104.928V4.29956H109.721C112.263 4.29956 113.722 5.3384 113.722 7.15262V7.21972H113.719ZM115.036 17.116V17.1831C115.036 19.1762 113.471 20.2722 110.63 20.2722H104.925V14.0939H110.325C112.474 14.0939 115.034 14.6183 115.034 17.116H115.036Z" fill="#0094D9"/>
<path id="Vector_14" d="M144.573 23.7367C144.163 23.9852 143.654 24.1095 143.05 24.1095H139.872L152 0.36792H152.455L164.583 24.1095H161.405C160.215 24.1095 159.373 23.59 158.876 22.5537L157.805 20.3816H146.618L145.58 22.5537C145.321 23.0955 144.986 23.4906 144.573 23.7367ZM148.822 16.4226H155.601L152.229 9.25515L148.825 16.4226H148.822Z" fill="#0094D9"/>
<path id="Vector_15" d="M161.436 3.16112V4.46836H168.932V24.2608H173.427V4.46836H180.924V0.310547H164.286C162.713 0.310547 161.436 1.58548 161.436 3.16112Z" fill="#0094D9"/>
<path id="Vector_16" d="M184.298 0.310547V24.2608H188.759V2.88774C188.759 1.4637 187.606 0.310547 186.182 0.310547H184.296H184.298Z" fill="#0094D9"/>
<path id="Vector_17" fill-rule="evenodd" clip-rule="evenodd" d="M204.606 0C197.798 0 192.279 5.51973 192.279 12.3293C192.279 19.1389 197.798 24.6586 204.606 24.6586C211.415 24.6586 216.934 19.1389 216.934 12.3293C216.934 5.51973 211.415 0 204.606 0ZM204.606 20.297C200.206 20.297 196.64 16.7307 196.64 12.3293C196.64 7.92793 200.206 4.3616 204.606 4.3616C209.007 4.3616 212.573 7.92793 212.573 12.3293C212.573 16.7307 209.007 20.297 204.606 20.297Z" fill="#0094D9"/>
<path id="Vector_18" d="M238.158 0.499589H240.541V24.0771H240.059L224.537 10.0653V21.9497L224.529 24.0746H220.062V0.499589H220.544L236.034 14.7674V2.60708C236.034 1.43653 236.988 0.489648 238.158 0.499589Z" fill="#0094D9"/>
</g>
<path id="Vector_19" d="M244.341 3.85217V3.83229C244.341 2.01309 245.814 0.482178 247.67 0.482178C249.527 0.482178 251 1.99569 251 3.8124V3.83229C251 5.65148 249.527 7.1824 247.67 7.1824C245.814 7.1824 244.341 5.66888 244.341 3.85217ZM250.62 3.83229V3.8124C250.62 2.18457 249.358 0.845023 247.673 0.845023C245.988 0.845023 244.726 2.20445 244.726 3.83229V3.85217C244.726 5.48 245.988 6.81955 247.673 6.81955C249.358 6.81955 250.62 5.46012 250.62 3.83229ZM246.428 2.09013H247.921C248.61 2.09013 249.166 2.45298 249.166 3.12399C249.166 3.6782 248.804 4.00377 248.344 4.13797L249.281 5.44024H248.61L247.767 4.21501H246.962V5.44024H246.426V2.09013H246.428ZM247.864 3.77513C248.344 3.77513 248.61 3.5266 248.61 3.16376C248.61 2.76115 248.321 2.56978 247.864 2.56978H246.965V3.77513H247.864Z" fill="#0094D9"/>
</g>
</g>
</svg>