<svg width="186" height="70" xmlns="http://www.w3.org/2000/svg">
  <g fill-rule="nonzero" fill="none">
    <g fill="#003B71">
      <path d="M26.277 46.727h-.032l-2.45 10.43h-1.328l-2.81-11.148h.967l2.497 10.305h.032l2.42-10.305h1.405l2.45 10.305h.033l2.497-10.305h.953l-2.826 11.149h-1.312zM39.188 51.756c0-.792-.187-1.371-.562-1.74-.375-.37-.938-.555-1.686-.555-.334 0-.69.039-1.069.116-.38.079-.742.195-1.085.35l-.203-.75a6.955 6.955 0 011.14-.32 6.4 6.4 0 011.266-.133c1 0 1.764.244 2.295.733.53.49.797 1.228.797 2.216v3.497c0 .293.013.623.039.992.026.37.066.7.116.992h-.812a6.01 6.01 0 01-.108-.797c-.021-.281-.036-.542-.047-.78h-.032c-.197.51-.544.932-1.039 1.266-.495.333-1.106.498-1.834.498a3.31 3.31 0 01-.992-.148 2.443 2.443 0 01-.834-.444 2.08 2.08 0 01-.57-.758c-.14-.307-.21-.67-.21-1.085 0-.563.14-1.026.422-1.39.281-.363.664-.645 1.147-.843.484-.197 1.054-.336 1.71-.415a18.154 18.154 0 012.155-.118v-.384h-.004zm-.39 1.06c-.562 0-1.095.029-1.601.087a5.29 5.29 0 00-1.335.313c-.386.152-.69.362-.913.632-.223.27-.336.61-.336 1.015 0 .53.16.954.476 1.273.317.317.763.476 1.335.476.478 0 .893-.083 1.242-.25.348-.166.635-.39.858-.67.223-.282.39-.604.5-.968.108-.364.164-.739.164-1.125v-.78h-.39v-.002zM41.562 48.913h1.545v-2.03h.89v2.03h2v.733h-2v5.496c0 .281.02.512.055.695.036.182.1.327.187.43a.646.646 0 00.351.21c.146.036.337.054.578.054.208 0 .369-.005.483-.015.115-.011.244-.026.39-.047v.687c-.135.02-.3.045-.491.069-.193.026-.394.04-.602.04-.697 0-1.18-.16-1.444-.477-.266-.317-.397-.845-.397-1.584v-5.558h-1.545v-.733zM54.209 53.222h-6.09c.01.437.086.87.227 1.295.14.428.343.792.609 1.094.266.302.596.542.992.718.395.176.859.266 1.39.266.384 0 .77-.034 1.154-.101a4.925 4.925 0 001.032-.289l.155.718a5.86 5.86 0 01-1.115.296c-.422.073-.84.11-1.257.11-.665 0-1.256-.11-1.772-.329a3.416 3.416 0 01-1.28-.92 4.021 4.021 0 01-.765-1.398 5.604 5.604 0 01-.257-1.725c0-.571.079-1.115.234-1.63.156-.516.388-.968.696-1.358.307-.39.692-.698 1.155-.92a3.494 3.494 0 011.537-.337c.583 0 1.088.1 1.515.297.428.198.777.474 1.047.827.27.354.47.776.601 1.265.13.49.195 1.031.195 1.624v.497h-.003zm-.827-.812c0-.917-.221-1.639-.664-2.171-.442-.53-1.065-.797-1.866-.797-.436 0-.826.082-1.171.25a2.354 2.354 0 00-.852.685 3.166 3.166 0 00-.508.985 4.543 4.543 0 00-.202 1.125h5.261v-.077h.002zM60.141 49.508a3.855 3.855 0 00-.64-.047c-.644 0-1.167.245-1.569.733-.4.49-.601 1.198-.601 2.124v4.84h-.891v-8.245h.859v1.39h.032c.176-.5.463-.887.858-1.163.396-.276.865-.414 1.407-.414h.288c.1 0 .201.01.304.031l-.047.75zM64.482 46.009h.967l3.655 10.305h.032l3.654-10.305h.967l-4.059 11.149h-1.187zM79.532 51.756c0-.792-.187-1.371-.562-1.74-.375-.37-.938-.555-1.686-.555-.333 0-.69.039-1.068.116-.381.079-.743.195-1.086.35l-.203-.75a6.955 6.955 0 011.14-.32 6.4 6.4 0 011.266-.133c1 0 1.764.244 2.295.733.53.49.797 1.228.797 2.216v3.497c0 .293.013.623.04.992.026.37.065.7.116.992h-.812a6.01 6.01 0 01-.109-.797c-.02-.281-.036-.542-.047-.78h-.032c-.197.51-.544.932-1.039 1.266-.495.333-1.106.498-1.833.498a3.31 3.31 0 01-.992-.148 2.443 2.443 0 01-.835-.444 2.08 2.08 0 01-.57-.758c-.14-.307-.21-.67-.21-1.085 0-.563.141-1.026.422-1.39.282-.363.664-.645 1.148-.843.484-.197 1.054-.336 1.71-.415a18.154 18.154 0 012.154-.118v-.384h-.003zm-.39 1.06c-.562 0-1.094.029-1.6.087a5.29 5.29 0 00-1.336.313c-.386.152-.69.362-.913.632-.223.27-.336.61-.336 1.015 0 .53.16.954.477 1.273.317.317.763.476 1.335.476.478 0 .892-.083 1.241-.25.349-.166.636-.39.859-.67.223-.282.39-.604.498-.968.11-.364.165-.739.165-1.125v-.78h-.39v-.002zM84.06 60.203h-.89v-11.29h.859v1.624h.032c.228-.499.598-.926 1.108-1.28a2.938 2.938 0 011.717-.531c.53 0 1.007.112 1.429.335.422.223.774.53 1.061.92.287.39.505.847.656 1.368.15.521.227 1.082.227 1.685 0 .604-.078 1.172-.234 1.703-.156.53-.38.986-.671 1.367-.293.38-.65.682-1.078.905a3.09 3.09 0 01-1.452.336 2.824 2.824 0 01-1.63-.484 3.302 3.302 0 01-1.102-1.248h-.031v4.59zm5.31-7.167c0-.498-.054-.965-.163-1.397a3.574 3.574 0 00-.49-1.132 2.455 2.455 0 00-.82-.765 2.24 2.24 0 00-1.133-.281c-.416 0-.798.088-1.147.266-.349.176-.64.424-.874.742a3.485 3.485 0 00-.538 1.133 5.19 5.19 0 00-.188 1.436c0 .521.062.998.188 1.429.126.431.308.81.546 1.132.24.323.525.572.858.75.334.177.713.267 1.14.267.437 0 .82-.094 1.148-.282.328-.187.602-.442.82-.765a3.52 3.52 0 00.49-1.14c.107-.442.164-.903.164-1.393zM99.486 53.02c0 .656-.082 1.246-.25 1.771-.166.525-.408.98-.725 1.367a3.129 3.129 0 01-1.162.881c-.458.203-.979.304-1.562.304a3.88 3.88 0 01-1.57-.304 3.15 3.15 0 01-1.17-.873 3.939 3.939 0 01-.725-1.367 5.923 5.923 0 01-.25-1.78c0-.656.083-1.248.25-1.779.167-.53.409-.979.725-1.343.317-.363.706-.65 1.163-.858.458-.208.984-.313 1.577-.313.583 0 1.106.105 1.57.313.462.208.85.495 1.162.858.313.364.551.812.718 1.343.167.53.25 1.123.25 1.78zm-.889 0c0-.51-.058-.985-.172-1.422a3.371 3.371 0 00-.523-1.14 2.362 2.362 0 00-.874-.742c-.349-.173-.763-.257-1.241-.257-.458 0-.87.092-1.234.273a2.446 2.446 0 00-.898.758 3.378 3.378 0 00-.523 1.125 5.427 5.427 0 00-.173 1.404c0 .51.057.981.173 1.414.114.431.289.812.523 1.14.234.328.529.583.883.765.355.182.77.274 1.249.274.478 0 .894-.092 1.249-.274.354-.182.645-.431.873-.75a3.37 3.37 0 00.516-1.14c.114-.442.172-.919.172-1.429zM105.498 49.508a3.855 3.855 0 00-.64-.047c-.645 0-1.168.245-1.57.733-.4.49-.601 1.198-.601 2.124v4.84h-.89v-8.245h.858v1.39h.032c.176-.5.463-.887.859-1.163.395-.276.864-.414 1.406-.414h.289c.099 0 .2.01.303.031l-.046.75zM113.478 46.79h-3.514v-.78h7.837v.78h-3.42v10.367h-.905V46.791zM120.316 45.68v4.637h.031c.24-.51.602-.903 1.086-1.179a3.148 3.148 0 011.584-.414c.927 0 1.645.275 2.155.827.51.55.765 1.286.765 2.2v5.403h-.89v-5.09a4.8 4.8 0 00-.117-1.079 2.079 2.079 0 00-.375-.827 1.768 1.768 0 00-.679-.516c-.281-.125-.63-.187-1.046-.187-.323 0-.636.054-.938.163-.301.109-.57.281-.804.516a2.55 2.55 0 00-.562.898c-.141.364-.21.802-.21 1.31v4.81h-.891V45.675h.89v.006zM135.102 53.222h-6.09c.011.437.086.87.227 1.295.14.428.343.792.61 1.094.265.302.595.542.991.718.396.176.859.266 1.39.266.384 0 .77-.034 1.154-.101a4.925 4.925 0 001.032-.289l.155.718a5.86 5.86 0 01-1.115.296c-.422.073-.84.11-1.257.11-.665 0-1.256-.11-1.772-.329a3.416 3.416 0 01-1.28-.92 4.021 4.021 0 01-.765-1.398 5.604 5.604 0 01-.257-1.725c0-.571.079-1.115.234-1.63.156-.516.388-.968.696-1.358.307-.39.692-.698 1.155-.92a3.494 3.494 0 011.537-.337c.584 0 1.088.1 1.515.297a2.77 2.77 0 011.047.827c.27.354.47.776.602 1.265.129.49.195 1.031.195 1.624v.497h-.004zm-.829-.812c0-.917-.221-1.639-.664-2.171-.442-.53-1.065-.797-1.865-.797-.437 0-.827.082-1.17.25a2.354 2.354 0 00-.852.685 3.166 3.166 0 00-.508.985 4.543 4.543 0 00-.202 1.125h5.261v-.077zM141.034 49.508a3.862 3.862 0 00-.64-.047c-.646 0-1.169.245-1.57.733-.401.49-.602 1.198-.602 2.124v4.84h-.89v-8.245h.858v1.39h.032c.176-.5.463-.887.859-1.163.395-.276.864-.414 1.404-.414h.289c.1 0 .2.01.303.031l-.043.75zM147.076 51.756c0-.792-.188-1.371-.563-1.74-.375-.37-.937-.555-1.686-.555-.333 0-.69.039-1.068.116-.38.079-.74.195-1.086.35l-.202-.75a6.955 6.955 0 011.14-.32 6.397 6.397 0 011.263-.133c1 0 1.765.244 2.295.733.531.49.797 1.228.797 2.216v3.497c0 .293.013.623.04.992.026.37.065.7.116.992h-.812a6.01 6.01 0 01-.109-.797c-.02-.281-.035-.542-.047-.78h-.031c-.2.51-.544.932-1.04 1.266-.494.333-1.105.498-1.833.498a3.3 3.3 0 01-.992-.148 2.469 2.469 0 01-.836-.444 2.08 2.08 0 01-.57-.758c-.14-.307-.21-.67-.21-1.085 0-.563.14-1.026.422-1.39.281-.363.664-.645 1.147-.843.484-.197 1.054-.336 1.71-.415a18.154 18.154 0 012.155-.118v-.384zm-.39 1.06c-.563 0-1.095.029-1.602.087a5.29 5.29 0 00-1.335.313c-.386.152-.69.362-.913.632-.223.27-.335.61-.335 1.015 0 .53.159.954.476 1.273.317.317.763.476 1.335.476.478 0 .892-.083 1.241-.25.349-.166.636-.39.859-.67.223-.282.39-.604.499-.968.108-.364.163-.739.163-1.125v-.78h-.388v-.002zM151.604 60.203h-.89v-11.29h.858v1.624h.032c.228-.499.598-.926 1.108-1.28a2.938 2.938 0 011.717-.531c.531 0 1.007.112 1.43.335.421.223.775.53 1.06.92.285.39.505.847.657 1.368.15.521.227 1.082.227 1.685 0 .604-.08 1.172-.235 1.703-.156.53-.38.986-.671 1.367-.293.38-.65.682-1.078.905a3.09 3.09 0 01-1.451.336 2.824 2.824 0 01-1.632-.484 3.302 3.302 0 01-1.1-1.248h-.032v4.59zm5.31-7.167c0-.498-.055-.965-.163-1.397a3.574 3.574 0 00-.492-1.132 2.455 2.455 0 00-.819-.765 2.24 2.24 0 00-1.132-.281c-.417 0-.8.088-1.148.266-.349.176-.64.424-.874.742a3.485 3.485 0 00-.538 1.133 5.19 5.19 0 00-.187 1.436c0 .521.061.998.187 1.429.126.431.308.81.546 1.132.24.323.525.572.858.75.334.177.713.267 1.14.267.437 0 .82-.094 1.148-.282.328-.187.602-.442.82-.765a3.52 3.52 0 00.49-1.14 5.8 5.8 0 00.164-1.393zM162.55 56.002h.032l2.655-7.089h.95l-4.449 11.29h-.937l1.265-3.17-3.247-8.118h.967z"/>
    </g>
    <g fill="#003B71">
      <path d="M74.307 16.309c-.375 0-.478-.102-.478-.48v-2.22c0-.377.101-.48.478-.48h10.27c.374 0 .475.101.475.48v2.22c0 .377-.1.48-.476.48h-10.27zM27.336 17.034h-1.434v6.936h1.093c3.041 0 4.134-.956 4.134-3.656 0-2.46-.922-3.28-3.793-3.28M37.654 37.06h-4.509c-.548 0-.548 0-.788-.48l-4.61-9.19h-1.845v6.39h1.845c.615 0 .716.1.716.717v1.843c0 .651-.101.719-.716.719h-8.03c-.651 0-.717-.07-.717-.719v-1.843c0-.617.101-.718.716-.718h1.744V16.896h-1.744c-.615 0-.716-.102-.716-.717v-1.845c0-.615.067-.718.716-.718h8.03c2.528 0 3.86.24 5.022.889 1.948 1.093 2.938 3.041 2.938 5.741 0 3.11-1.127 4.956-3.894 6.323l4.134 7.211h1.708c.48 0 .582.101.582.581v2.119c0 .476-.102.58-.582.58M46.371 22.706c-1.743 0-2.527 1.093-2.837 3.896h5.333c-.07-2.836-.752-3.896-2.496-3.896m6.287 7.073h-9.191c.067 2.938 1.264 4.307 3.793 4.307 1.264 0 2.597-.377 3.894-1.06a.93.93 0 01.445-.137c.17 0 .275.105.377.308l.853 2.05c.101.206.101.24.101.376 0 .375-.274.581-1.402 1.06-1.502.648-3.042.956-4.716.956-2.186 0-3.894-.582-5.09-1.675-1.641-1.503-2.564-4.1-2.564-7.21 0-5.538 2.974-9.16 7.483-9.16 4.478 0 6.767 3.144 6.767 9.365.002.65-.169.82-.75.82M69.231 33.13l-1.503 3.487c-.136.341-.274.444-.647.444H56.146c-.514 0-.582-.07-.582-.581v-2.325l7.892-10.457H59.46v1.403c0 .375-.102.48-.478.48h-2.22c-.377 0-.479-.105-.479-.48v-4.444c0-.375.102-.48.479-.48h10.865c.48 0 .581.105.581.581v2.426l-7.756 10.287h4.955l.752-1.81c.068-.17.204-.274.341-.274.068 0 .205.034.375.102l2.153.922c.24.101.305.205.305.341 0 .07-.033.207-.1.377M88.026 37.06h-4.58c-.582 0-.683-.137-1.024-1.504-1.674 1.573-2.801 2.085-4.783 2.085-2.256 0-3.86-.957-4.51-2.7-.275-.788-.377-1.778-.377-3.964v-7.622H71.01c-.375 0-.477-.101-.477-.478v-2.222c0-.375.102-.478.477-.478h5.537c.478 0 .547.07.547.547v10.047c0 1.503.07 2.05.306 2.495.275.546.922.923 1.674.923.923 0 1.776-.377 2.734-1.264v-9.57H80.03c-.341 0-.446-.101-.446-.478v-2.222c0-.375.105-.478.446-.478H85.6c.478 0 .546.07.546.547v10.287c0 1.263.069 1.914.34 2.87h1.54c.375 0 .477.102.477.48v2.22c.001.375-.1.478-.477.478M116.39 37.06h-5.333c-.512 0-.581-.07-.581-.582V25.644c0-1.878-.41-2.529-1.572-2.529-.922 0-1.777.41-2.906 1.434v9.33h1.778c.41 0 .478.102.478.582v2.118c0 .377-.102.48-.478.48h-5.468c-.512 0-.581-.069-.581-.58V25.985c0-2.22-.341-2.871-1.538-2.871-.886 0-1.674.41-2.87 1.434v9.33h1.743c.376 0 .477.102.477.48v2.22c0 .377-.102.48-.477.48h-7.79c-.375 0-.478-.1-.478-.48v-2.22c0-.377.105-.48.478-.48h1.744v-7.618c0-1.333-.07-1.914-.342-2.906h-1.64c-.375 0-.477-.101-.477-.478v-2.222c0-.375.102-.478.477-.478h4.751c.615 0 .752.206 1.127 1.811 1.914-1.811 3.178-2.392 4.987-2.392 1.812 0 2.974.751 3.726 2.392 1.879-1.744 3.349-2.392 5.261-2.392 1.435 0 2.563.547 3.145 1.503.545.923.716 1.948.716 4.135v8.645h1.744c.375 0 .478.102.478.48v2.22c.002.411-.068.48-.58.48M131.886 19.796h-2.63c-.22 0-.3-.08-.3-.298v-.679c0-.217.08-.298.3-.298h.438l-.058-2.951v-.16c0-.12 0-.32.019-.678-.1.44-.139.637-.22.877l-.738 2.254c-.079.218-.139.259-.377.259h-.718c-.24 0-.298-.041-.36-.259l-.638-2.154c-.08-.28-.12-.48-.219-.977l.019.977-.058 2.81h.418c.22 0 .3.081.3.299v.678c0 .218-.08.298-.3.298h-2.492c-.24 0-.32-.08-.32-.298v-.678c0-.218.08-.299.32-.299h.457l.26-5.244h-.498c-.22 0-.3-.08-.3-.3v-.677c0-.22.08-.298.3-.298h2.012c.24 0 .28.04.36.259l.936 2.773c.12.337.1.379.22 1.076.12-.58.18-.817.279-1.076l.976-2.773c.081-.22.14-.259.36-.259h2.014c.238 0 .317.079.317.298v.677c0 .22-.08.3-.317.3h-.52l.28 5.244h.478c.22 0 .3.081.3.299v.678c0 .22-.08.3-.3.3m-8.593-5.124h-.637c-.24 0-.32-.08-.32-.3v-.917h-.66v5.064h.7c.259 0 .34.081.34.34v.596c0 .259-.081.34-.34.34h-3.17c-.28 0-.36-.081-.36-.34v-.596c0-.259.099-.34.36-.34h.677v-5.064h-.659v.917c0 .22-.078.3-.318.3h-.638c-.22 0-.3-.08-.3-.3v-2.074c0-.22.08-.298.3-.298h5.023c.22 0 .298.079.298.298v2.074c.002.22-.076.3-.296.3"/>
    </g>
  </g>
</svg>
