<?xml version="1.0" encoding="utf-8"?>
<!-- Generator: Adobe Illustrator 28.0.0, SVG Export Plug-In . SVG Version: 6.00 Build 0)  -->
<svg version="1.1" id="Layer_1" xmlns="http://www.w3.org/2000/svg" xmlns:xlink="http://www.w3.org/1999/xlink" x="0px" y="0px"
	 viewBox="0 0 218 65" style="enable-background:new 0 0 218 65;" xml:space="preserve">
<style type="text/css">
	.st0{fill-rule:evenodd;clip-rule:evenodd;fill:#FFFFFF;}
	.st1{fill-rule:evenodd;clip-rule:evenodd;fill:#F6BD16;}
</style>
<g id="Symbols">
	<g id="NAV_x2F_Global-Patient" transform="translate(-133.000000, -39.000000)">
		<g id="logo" transform="translate(133.000000, 39.000000)">
			<g id="Group-28" transform="translate(65.000000, 0.000000)">
				<path id="Fill-1" class="st0" d="M3.1,60.1h2.1c1.2,0,2-0.8,2-2s-0.8-2-2-2H2.7v3.6C2.7,60,2.9,60.1,3.1,60.1L3.1,60.1z M5,54.8
					c1,0,1.7-0.7,1.7-1.8c0-1-0.6-1.7-1.7-1.7H2.7v3.5H5z M1.1,51.3H0v-1.4h5c2,0,3.4,1.1,3.4,3c0,1.3-0.7,2.1-1.5,2.5l0,0
					c1.2,0.4,1.9,1.5,1.9,2.8c0,2.2-1.7,3.3-3.8,3.3H2c-0.7,0-1.1-0.3-1.1-1.1v-9.1H1.1z"/>
				<path id="Fill-3" class="st0" d="M14.9,55.8c1.4,0,2.2-0.9,2.2-2.3s-0.8-2.2-2.2-2.2h-2.2v4.5H14.9z M11.1,51.3H10v-1.4h5.1
					c2.1,0,3.7,1.4,3.7,3.6c0,2.2-1.5,3.7-3.7,3.7h-2.4v4.3H11L11.1,51.3L11.1,51.3z"/>
				<path id="Fill-5" class="st0" d="M20.8,51.7c0-0.2-0.1-0.4-0.4-0.4h-0.7v-1.4h1.7c0.7,0,1.1,0.3,1.1,1.1v4h5.9v-4.1
					c0-0.7,0.3-1.1,1.1-1.1h1.7v1.4h-0.7c-0.2,0-0.4,0.1-0.4,0.4v9.9h-1.7v-5.1h-5.9v5.1h-1.7V51.7z"/>
				<path id="Fill-7" class="st0" d="M41.4,55.5c1.3,0,2-0.8,2-2.1s-0.7-2.1-2-2.1h-2.2v4.2C39.2,55.5,41.4,55.5,41.4,55.5z
					 M37.6,51.3h-1.1v-1.4h5.1c2,0,3.5,1.3,3.5,3.4c0,1.9-1.3,2.9-2.1,3.1l0,0c0,0,0.3,0.1,0.5,0.5l1.4,2.8c0.2,0.3,0.4,0.4,0.8,0.4
					h0.2v1.4h-0.8c-0.9,0-1.2-0.1-1.6-0.9l-1.6-3.1c-0.3-0.5-0.5-0.6-1.2-0.6h-1.5v4.6h-1.7L37.6,51.3L37.6,51.3z"/>
				<path id="Fill-9" class="st0" d="M52.5,56.4c0-1.4-0.9-2.1-2-2.1c-1.2,0-2.2,0.7-2.5,2.1H52.5z M50.6,53c2.3,0,3.6,1.8,3.6,3.9
					c0,0.2,0,0.7,0,0.7H48c0.1,1.8,1.4,2.8,2.9,2.8c1.4,0,2.4-1,2.4-1l0.7,1.1c0,0-1.2,1.2-3.2,1.2c-2.6,0-4.4-1.9-4.4-4.4
					C46.4,54.7,48.2,53,50.6,53L50.6,53z"/>
				<path id="Fill-11" class="st0" d="M56.1,51.6c0-0.2-0.1-0.4-0.4-0.4H55v-1.4h1.6c0.7,0,1.1,0.3,1.1,1.1v8.9
					c0,0.2,0.1,0.4,0.4,0.4h0.7v1.4h-1.6c-0.7,0-1.1-0.3-1.1-1.1V51.6z"/>
				<path id="Fill-13" class="st0" d="M60.6,51.5H62v-1.7h-1.4V51.5z M60.5,54.9c0-0.2-0.1-0.4-0.4-0.4h-0.7v-1.4H61
					c0.7,0,1.1,0.3,1.1,1.1v5.6c0,0.2,0.1,0.4,0.4,0.4h0.7v1.4h-1.6c-0.7,0-1.1-0.3-1.1-1.1V54.9z"/>
				<path id="Fill-15" class="st0" d="M70.2,56.4c0-1.4-0.9-2.1-2-2.1c-1.2,0-2.2,0.7-2.5,2.1H70.2z M68.2,53c2.3,0,3.6,1.8,3.6,3.9
					c0,0.2,0,0.7,0,0.7h-6.1c0.1,1.8,1.4,2.8,2.9,2.8c1.4,0,2.4-1,2.4-1l0.7,1.1c0,0-1.2,1.2-3.2,1.2c-2.6,0-4.4-1.9-4.4-4.4
					C64,54.7,65.8,53,68.2,53L68.2,53z"/>
				<path id="Fill-16" class="st0" d="M73.8,54.5h-1v-1.3h1v-0.3c0-2.8,2.1-3.1,3.2-3.1c0.4,0,0.6,0,0.6,0v1.4c0,0-0.2,0-0.4,0
					c-0.6,0-1.8,0.2-1.8,1.7v0.2h2v1.3h-2v7.1h-1.6C73.8,61.5,73.8,54.5,73.8,54.5z"/>
				<polygon id="Fill-17" class="st0" points="78,61.5 79.6,61.5 79.6,59.8 78,59.8 				"/>
				<polygon id="Fill-18" class="st0" points="85.6,60.1 86.8,60.1 86.8,51.3 85.6,51.3 85.6,49.9 89.5,49.9 89.5,51.3 88.3,51.3 
					88.3,60.1 89.5,60.1 89.5,61.5 85.6,61.5 				"/>
				<path id="Fill-19" class="st0" d="M91.4,54.9c0-0.2-0.1-0.4-0.4-0.4h-0.7v-1.4h1.5c0.7,0,1.1,0.3,1.1,0.9v0.3c0,0.3,0,0.5,0,0.5
					l0,0c0.3-0.7,1.3-1.9,3.1-1.9c2,0,2.9,1.1,2.9,3.2v3.6c0,0.2,0.1,0.4,0.4,0.4h0.7v1.4h-1.6c-0.7,0-1.1-0.3-1.1-1.1v-3.9
					c0-1.2-0.2-2.1-1.6-2.1c-1.3,0-2.3,0.8-2.6,2C93,56.7,93,57.1,93,57.5v3.9h-1.6C91.4,61.4,91.4,54.9,91.4,54.9z"/>
				<path id="Fill-20" class="st0" d="M106,58.8c0,0,1.2,1.4,2.9,1.4c1.1,0,2-0.7,2-1.7c0-2.4-5.6-2.1-5.6-5.7
					c0-1.7,1.5-3.1,3.7-3.1c1.2,0,3.3,0.6,3.3,2.1v1h-1.5v-0.5c0-0.6-0.9-1.1-1.8-1.1c-1.3,0-2.1,0.7-2.1,1.6c0,2.4,5.6,1.8,5.6,5.7
					c0,1.8-1.4,3.3-3.7,3.3c-2.5,0-3.9-1.7-3.9-1.7L106,58.8z"/>
				<path id="Fill-21" class="st0" d="M114.7,51.5h1.4v-1.7h-1.4V51.5z M114.7,54.9c0-0.2-0.1-0.4-0.4-0.4h-0.7v-1.4h1.6
					c0.7,0,1.1,0.3,1.1,1.1v5.6c0,0.2,0.1,0.4,0.4,0.4h0.7v1.4h-1.6c-0.7,0-1.1-0.3-1.1-1.1V54.9z"/>
				<path id="Fill-22" class="st0" d="M124.5,57.2c0-2.2-1.1-2.8-2.4-2.8c-1.5,0-2.3,1.1-2.3,2.8s0.9,2.9,2.4,2.9
					C123.4,60,124.5,59.4,124.5,57.2 M121.8,53c2.1,0,2.7,1.3,2.7,1.3l0,0V54c0-0.5,0.3-0.8,0.9-0.8h1.6v1.4h-0.7
					c-0.2,0-0.4,0.1-0.4,0.3v6.3c0,2.8-2.1,3.8-4.2,3.8c-1,0-2-0.3-2.9-0.7l0.5-1.3c0,0,1,0.6,2.3,0.6c1.5,0,2.6-0.6,2.6-2.3v-0.6
					c0-0.3,0-0.5,0-0.5l0,0c-0.5,0.8-1.3,1.3-2.5,1.3c-2.3,0-3.7-1.9-3.7-4.3C118.2,54.8,119.5,53,121.8,53"/>
				<path id="Fill-23" class="st0" d="M128.6,51.6c0-0.2-0.1-0.4-0.4-0.4h-0.7v-1.4h1.6c0.7,0,1.1,0.3,1.1,1v3.3c0,0.4,0,0.7,0,0.7
					l0,0c0.4-0.8,1.4-1.9,3.1-1.9c2,0,2.9,1.1,2.9,3.2v3.6c0,0.2,0.1,0.4,0.4,0.4h0.7v1.4h-1.6c-0.7,0-1.1-0.3-1.1-1.1v-3.9
					c0-1.2-0.2-2.1-1.6-2.1c-1.3,0-2.3,0.9-2.6,2.1c-0.1,0.3-0.1,0.7-0.1,1.1v3.9h-1.6L128.6,51.6L128.6,51.6z"/>
				<path id="Fill-24" class="st0" d="M138.9,54.5h-1.1v-1.3h1.1v-2.3h1.6v2.3h2v1.3h-2v3.8c0,1.7,1.2,1.9,1.8,1.9
					c0.2,0,0.4,0,0.4,0v1.4c0,0-0.2,0-0.6,0c-1.1,0-3.2-0.3-3.2-3.1V54.5z"/>
				<path id="Fill-26" class="st0" d="M149.5,60.6h0.2c0,0,0.1,0,0.1-0.1L150,58h0.5l0.7,1.6c0.1,0.1,0.1,0.3,0.1,0.3l0,0
					c0,0,0-0.2,0.1-0.3l0.7-1.6h0.5l0.2,2.5c0,0,0,0.1,0.1,0.1h0.2v0.5h-0.4c-0.2,0-0.3-0.1-0.3-0.3l-0.1-1.5c0-0.1,0-0.2,0-0.2l0,0
					l-0.7,1.5h-0.4l-0.7-1.5l0,0c0,0,0,0.1,0,0.2l-0.1,1.5c0,0.2-0.1,0.3-0.3,0.3h-0.4v-0.5H149.5z M147.9,58.5h-0.5
					c0,0-0.1,0-0.1,0.1v0.2h-0.5v-0.4c0-0.2,0.1-0.3,0.3-0.3h2c0.2,0,0.3,0.1,0.3,0.3v0.4h-0.5v-0.2c0,0,0-0.1-0.1-0.1h-0.5v2.6
					h-0.5v-2.6H147.9z"/>
				<path id="Fill-27" class="st1" d="M31.8,6.5c3.9,1.6,7,4.9,7.8,9.6c0.2,0.8,0.2,1.7,0.2,2.5s-0.1,1.6-0.2,2.4
					c-0.9,4.7-3.9,8-7.8,9.6c-3.9,1.9-3,6.5-3,6.5c1.7-0.2,4.1-0.8,5.5-1.4c5.4-2.5,9.6-7.3,10.8-13.7c0.2-1.2,0.3-2.3,0.3-3.5
					c0-1.1-0.1-2.3-0.3-3.5C43.9,8.7,39.7,3.8,34.3,1.4c-1.4-0.6-3.8-1.2-5.5-1.4C28.9,0,28,4.6,31.8,6.5 M17.4,1.4
					C12,3.8,7.8,8.7,6.6,15.1c-0.2,1.2-0.3,2.3-0.3,3.5c0,1.1,0.1,2.3,0.3,3.5c1.2,6.5,5.4,11.3,10.8,13.7c1.4,0.6,3.8,1.2,5.5,1.4
					c0,0,0.9-4.6-3-6.5c-3.9-1.6-7-4.9-7.8-9.6c-0.2-0.8-0.2-1.7-0.2-2.4l0,0l0,0c0-0.8,0.1-1.6,0.2-2.5c0.9-4.7,3.9-8,7.8-9.6
					c3.9-1.9,3-6.5,3-6.5C21.2,0.2,18.8,0.8,17.4,1.4"/>
			</g>
			<g id="Group-31" transform="translate(70.000000, 0.000000)">
				<g id="Clip-30">
				</g>
			</g>
			<g id="Group-48" transform="translate(0.000000, 1.000000)">
				<path id="Fill-32" class="st0" d="M54.5,0.1h-9.2c-3.6,0-5.8,1.7-6.8,3.6c-1,1.7-1.1,3.5-1.1,4.1c0,0.1,0,27.9,0,27.9H43V7.2
					c0-0.2,0-0.7,0.2-1.1c0.3-0.6,0.7-0.8,1.5-0.8h10.6c2.8,0.2,4.7,2.2,4.7,5.2c0,0,0,3.6,0,3.7c-0.1,2.7-1.9,4.9-3.9,4.9h-4.5
					c-4.7,0-5.4,4.7-5.4,4.7h5.5l4.9,9c1.8,3.1,4.4,2.9,4.4,2.9h3.5l-6.6-12.1c0.9-0.2,1.6-0.4,1.6-0.4c3.9-1.4,6.3-5,6.3-9.2v-3.6
					c0-3.1-1.2-5.7-3.2-7.5C60.3,1,57.6,0.1,54.5,0.1"/>
				<path id="Fill-34" class="st0" d="M122.3,29.4c-0.2-0.4-0.2-1.2-0.2-1.2l-0.1-22c0-5.4-5.4-6.3-5.4-6.3s0,27.6,0,27.7
					c0,0.6,0.1,2.3,1.1,4.1s3.2,3.6,6.8,3.6l0,0l0,0h0.1h4.7h0.1h1.6c5.1,0,5.9-5.1,5.9-5.1h-13.3C122.7,30.2,122.6,30,122.3,29.4"
					/>
				<path id="Fill-36" class="st0" d="M22.7,6.3v15.5c-0.1,5.7-2.8,9.1-8.6,9.1c-5.8-0.1-8.6-3.4-8.7-9.2V6.2C5.4,0.9,0,0,0,0v21.1
					l0,0c0,4.4,1.3,8.1,3.8,10.8c2.5,2.6,6,4.1,10.3,4.1h0.1c4.3,0,7.9-1.5,10.3-4.1s3.7-6.3,3.7-10.6l0,0V0
					C28.3,0,22.7,0.9,22.7,6.3"/>
				<path id="Fill-39" class="st0" d="M167,5.2h7.7c5.1,0,5.9-5.1,5.9-5.1s-13,0-13.2,0h-0.1l0,0C164,0.2,162,1.9,161,3.6
					s-1.1,3.5-1.1,4.1v27.7h5.5v-15h4.3c5.1,0,5.9-5,5.9-5h-10.2V7.2l0,0c0-0.1,0-0.7,0.2-1.1C166,5.4,166.1,5.3,167,5.2"/>
				<path id="Fill-41" class="st0" d="M188.7,0.1c-5.1,0-5.9,5.1-5.9,5.1h10.6v30.5h5.5V5.2h5c5.1,0,5.9-5.1,5.9-5.1L188.7,0.1z"/>
				<path id="Fill-43" class="st0" d="M149.9,6.3c0-5.4-5.4-6.3-5.4-6.3v35.7h5.5L149.9,6.3z"/>
			</g>
		</g>
	</g>
</g>
<path id="Fill-26_00000128469864910416853960000017000653171173963653_" class="st0" d="M214.3,3.6h0.2c0,0,0.1,0,0.1-0.1l0.2-2.5
	h0.5l0.7,1.6c0.1,0.1,0.1,0.3,0.1,0.3l0,0c0,0,0-0.2,0.1-0.3l0.7-1.6h0.5l0.2,2.5c0,0,0,0.1,0.1,0.1h0.2v0.5h-0.4
	c-0.2,0-0.3-0.1-0.3-0.3l-0.1-1.5c0-0.1,0-0.2,0-0.2l0,0l-0.7,1.5H216l-0.7-1.5l0,0c0,0,0,0.1,0,0.2l-0.1,1.5c0,0.2-0.1,0.3-0.3,0.3
	h-0.4V3.6H214.3z M212.7,1.5h-0.5c0,0-0.1,0-0.1,0.1v0.2h-0.5V1.3c0-0.2,0.1-0.3,0.3-0.3h2c0.2,0,0.3,0.1,0.3,0.3v0.4h-0.5V1.5
	c0,0,0-0.1-0.1-0.1h-0.5V4h-0.5V1.5H212.7z"/>
</svg>
